<svg xmlns="http://www.w3.org/2000/svg" viewBox="0 0 128 128" fill="none">
  <rect x="7" y="7" width="114" height="114" rx="19" stroke="currentColor" stroke-opacity=".75" stroke-width="3"/>
  <rect x="13" y="13" width="102" height="102" rx="15" stroke="currentColor" stroke-opacity=".22" stroke-width="1.5"/>
  <path d="M7 42V24C7 14.6 14.6 7 24 7h20M84 7h20c9.4 0 17 7.6 17 17v18M121 86v18c0 9.4-7.6 17-17 17H84M44 121H24c-9.4 0-17-7.6-17-17V86" stroke="currentColor" stroke-width="5" stroke-linecap="round"/>
  <path d="M20 35h22l8-8h28M108 93H86l-8 8H50" stroke="currentColor" stroke-opacity=".5" stroke-width="2"/>
  <circle cx="111" cy="18" r="4" fill="currentColor" fill-opacity=".9"/>
  <circle cx="17" cy="110" r="3" fill="currentColor" fill-opacity=".65"/>
</svg>